<?xml version="1.0" encoding="UTF-8" standalone="no"?>
<!-- Created with Inkscape (http://www.inkscape.org/) -->
<svg
   xmlns:dc="http://purl.org/dc/elements/1.1/"
   xmlns:cc="http://web.resource.org/cc/"
   xmlns:rdf="http://www.w3.org/1999/02/22-rdf-syntax-ns#"
   xmlns:svg="http://www.w3.org/2000/svg"
   xmlns="http://www.w3.org/2000/svg"
   xmlns:xlink="http://www.w3.org/1999/xlink"
   xmlns:sodipodi="http://sodipodi.sourceforge.net/DTD/sodipodi-0.dtd"
   xmlns:inkscape="http://www.inkscape.org/namespaces/inkscape"
   width="3200"
   height="2400"
   id="svg2"
   sodipodi:version="0.32"
   inkscape:version="0.44"
   version="1.0"
   inkscape:export-filename="/home/danigm/Documents/Projects/python/PiXCar/data/albacete-bg.png"
   inkscape:export-xdpi="118.12"
   inkscape:export-ydpi="118.12"
   sodipodi:docbase="/home/danigm/Documents/Projects/python/PiXCar/data"
   sodipodi:docname="albacete.svg">
  <defs
     id="defs4">
    <linearGradient
       id="linearGradient7588">
      <stop
         style="stop-color:#00a200;stop-opacity:1"
         offset="0"
         id="stop7590" />
      <stop
         style="stop-color:#006a00;stop-opacity:1"
         offset="1"
         id="stop7592" />
    </linearGradient>
    <marker
       inkscape:stockid="Arrow1Lend"
       orient="auto"
       refY="0.0"
       refX="0.0"
       id="Arrow1Lend"
       style="overflow:visible;">
      <path
         id="path6692"
         d="M 0.0,0.0 L 5.0,-5.0 L -12.5,0.0 L 5.0,5.0 L 0.0,0.0 z "
         style="fill-rule:evenodd;stroke:#000000;stroke-width:1.0pt;marker-start:none;"
         transform="scale(0.8) rotate(180) translate(12.5,0)" />
    </marker>
    <linearGradient
       gradientTransform="matrix(0.902307,0,0,0.986402,31.83817,7.821152)"
       gradientUnits="userSpaceOnUse"
       y2="567.81128"
       x2="405.66531"
       y1="697.83392"
       x1="406.76718"
       id="linearGradient6078"
       xlink:href="#linearGradient6072"
       inkscape:collect="always" />
    <linearGradient
       gradientTransform="translate(0,-1146.079)"
       y2="558.20929"
       x2="193.67471"
       y1="470.89139"
       x1="195.62471"
       gradientUnits="userSpaceOnUse"
       id="linearGradient5972"
       xlink:href="#linearGradient5928"
       inkscape:collect="always" />
    <linearGradient
       gradientTransform="translate(0,-1146.079)"
       y2="558.20929"
       x2="193.67471"
       y1="470.89139"
       x1="195.62471"
       gradientUnits="userSpaceOnUse"
       id="linearGradient5970"
       xlink:href="#linearGradient5936"
       inkscape:collect="always" />
    <linearGradient
       gradientUnits="userSpaceOnUse"
       y2="-680.09247"
       x2="188.83266"
       y1="-549.38239"
       x1="186.60002"
       id="linearGradient4094"
       xlink:href="#linearGradient4088"
       inkscape:collect="always" />
    <linearGradient
       gradientUnits="userSpaceOnUse"
       y2="-743.40839"
       x2="457.80374"
       y1="-563.57526"
       x1="458.24304"
       id="linearGradient4086"
       xlink:href="#linearGradient4080"
       inkscape:collect="always" />
    <linearGradient
       id="linearGradient3669"
       inkscape:collect="always">
      <stop
         id="stop3671"
         offset="0"
         style="stop-color:white;stop-opacity:1;" />
      <stop
         id="stop3673"
         offset="1"
         style="stop-color:white;stop-opacity:0;" />
    </linearGradient>
    <linearGradient
       id="linearGradient4080"
       inkscape:collect="always">
      <stop
         id="stop4082"
         offset="0"
         style="stop-color:white;stop-opacity:1;" />
      <stop
         id="stop4084"
         offset="1"
         style="stop-color:white;stop-opacity:0;" />
    </linearGradient>
    <linearGradient
       id="linearGradient4088"
       inkscape:collect="always">
      <stop
         id="stop4090"
         offset="0"
         style="stop-color:#007c00;stop-opacity:1;" />
      <stop
         id="stop4092"
         offset="1"
         style="stop-color:#007c00;stop-opacity:0;" />
    </linearGradient>
    <linearGradient
       id="linearGradient5019"
       inkscape:collect="always">
      <stop
         id="stop5021"
         offset="0"
         style="stop-color:white;stop-opacity:1;" />
      <stop
         id="stop5023"
         offset="1"
         style="stop-color:#a6a7a4;stop-opacity:1" />
    </linearGradient>
    <linearGradient
       id="linearGradient5920"
       inkscape:collect="always">
      <stop
         id="stop5922"
         offset="0"
         style="stop-color:#f60;stop-opacity:1;" />
      <stop
         id="stop5924"
         offset="1"
         style="stop-color:#fa0;stop-opacity:1" />
    </linearGradient>
    <linearGradient
       id="linearGradient5928"
       inkscape:collect="always">
      <stop
         id="stop5930"
         offset="0"
         style="stop-color:#ffb300;stop-opacity:1" />
      <stop
         id="stop5932"
         offset="1"
         style="stop-color:#ff5400;stop-opacity:1" />
    </linearGradient>
    <linearGradient
       id="linearGradient5936"
       inkscape:collect="always">
      <stop
         id="stop5938"
         offset="0"
         style="stop-color:#ffb300;stop-opacity:1" />
      <stop
         id="stop5940"
         offset="1"
         style="stop-color:#ff5400;stop-opacity:1" />
    </linearGradient>
    <linearGradient
       inkscape:collect="always"
       id="linearGradient5944">
      <stop
         style="stop-color:#999;stop-opacity:1"
         offset="0"
         id="stop5946" />
      <stop
         style="stop-color:#999;stop-opacity:0"
         offset="1"
         id="stop5948" />
    </linearGradient>
    <linearGradient
       id="linearGradient5954"
       inkscape:collect="always">
      <stop
         id="stop5956"
         offset="0"
         style="stop-color:#1a1a1a;stop-opacity:1;" />
      <stop
         id="stop5958"
         offset="1"
         style="stop-color:#1a1a1a;stop-opacity:0;" />
    </linearGradient>
    <linearGradient
       id="linearGradient6072">
      <stop
         id="stop6074"
         offset="0"
         style="stop-color:white;stop-opacity:1;" />
      <stop
         id="stop6076"
         offset="1"
         style="stop-color:white;stop-opacity:0.69172931;" />
    </linearGradient>
    <linearGradient
       y2="453.59683"
       x2="374.15784"
       y1="551.26172"
       x1="372.50522"
       gradientTransform="matrix(1.007084,0,0,1.007084,-2.710092,120.3536)"
       gradientUnits="userSpaceOnUse"
       id="linearGradient9248"
       xlink:href="#linearGradient6072"
       inkscape:collect="always" />
    <linearGradient
       gradientTransform="matrix(0.902307,0,0,0.986402,31.83817,7.821152)"
       gradientUnits="userSpaceOnUse"
       y2="567.81128"
       x2="405.66531"
       y1="697.83392"
       x1="406.76718"
       id="linearGradient9246"
       xlink:href="#linearGradient6072"
       inkscape:collect="always" />
    <linearGradient
       gradientTransform="translate(-3.28125e-5,-1153.484)"
       y2="558.20929"
       x2="193.67471"
       y1="470.89139"
       x1="195.62471"
       gradientUnits="userSpaceOnUse"
       id="linearGradient9244"
       xlink:href="#linearGradient5928"
       inkscape:collect="always" />
    <linearGradient
       gradientTransform="translate(-3.28125e-5,-1153.484)"
       y2="558.20929"
       x2="193.67471"
       y1="470.89139"
       x1="195.62471"
       gradientUnits="userSpaceOnUse"
       id="linearGradient9242"
       xlink:href="#linearGradient5936"
       inkscape:collect="always" />
    <linearGradient
       gradientTransform="matrix(1,0,0,-1,-3.28125e-5,1153.484)"
       y2="549.12012"
       x2="131.55957"
       y1="588.82147"
       x1="85.526924"
       gradientUnits="userSpaceOnUse"
       id="linearGradient9240"
       xlink:href="#linearGradient5954"
       inkscape:collect="always" />
    <linearGradient
       y2="504.83167"
       x2="621.4303"
       y1="453.27194"
       x1="668.91956"
       gradientTransform="matrix(-1,0,0,1,942.579,115.8208)"
       gradientUnits="userSpaceOnUse"
       id="linearGradient9238"
       xlink:href="#linearGradient3669"
       inkscape:collect="always" />
    <linearGradient
       y2="504.83167"
       x2="621.4303"
       y1="453.27194"
       x1="668.91956"
       gradientTransform="matrix(1,0,0,-1,11.99997,1163.484)"
       gradientUnits="userSpaceOnUse"
       id="linearGradient9236"
       xlink:href="#linearGradient3669"
       inkscape:collect="always" />
    <linearGradient
       y2="543.14191"
       x2="134.51221"
       y1="573.22455"
       x1="101.70368"
       gradientTransform="matrix(-1,0,0,1,398.5787,127.8208)"
       gradientUnits="userSpaceOnUse"
       id="linearGradient9234"
       xlink:href="#linearGradient5944"
       inkscape:collect="always" />
    <linearGradient
       gradientTransform="translate(-3.28125e-5,-1153.484)"
       y2="570.68585"
       x2="192.19034"
       y1="458.06854"
       x1="192.86119"
       gradientUnits="userSpaceOnUse"
       id="linearGradient9232"
       xlink:href="#linearGradient5019"
       inkscape:collect="always" />
    <linearGradient
       gradientTransform="translate(-3.28125e-5,-1153.484)"
       y2="453.59662"
       x2="363.3226"
       y1="575.88721"
       x1="365.61008"
       gradientUnits="userSpaceOnUse"
       id="linearGradient9230"
       xlink:href="#linearGradient5920"
       inkscape:collect="always" />
    <linearGradient
       gradientTransform="translate(0,-1146.079)"
       y2="558.20929"
       x2="193.67471"
       y1="470.89139"
       x1="195.62471"
       gradientUnits="userSpaceOnUse"
       id="linearGradient9228"
       xlink:href="#linearGradient5928"
       inkscape:collect="always" />
    <linearGradient
       gradientTransform="translate(0,-1146.079)"
       y2="558.20929"
       x2="193.67471"
       y1="470.89139"
       x1="195.62471"
       gradientUnits="userSpaceOnUse"
       id="linearGradient9226"
       xlink:href="#linearGradient5936"
       inkscape:collect="always" />
    <linearGradient
       gradientUnits="userSpaceOnUse"
       y2="549.12012"
       x2="131.55957"
       y1="588.82147"
       x1="85.526924"
       id="linearGradient9224"
       xlink:href="#linearGradient5954"
       inkscape:collect="always" />
    <linearGradient
       gradientUnits="userSpaceOnUse"
       y2="558.20929"
       x2="193.67471"
       y1="470.89139"
       x1="195.62471"
       id="linearGradient9222"
       xlink:href="#linearGradient5936"
       inkscape:collect="always" />
    <linearGradient
       gradientUnits="userSpaceOnUse"
       y2="558.20929"
       x2="193.67471"
       y1="470.89139"
       x1="195.62471"
       id="linearGradient9220"
       xlink:href="#linearGradient5928"
       inkscape:collect="always" />
    <linearGradient
       gradientUnits="userSpaceOnUse"
       y2="453.59662"
       x2="363.3226"
       y1="575.88721"
       x1="365.61008"
       id="linearGradient9218"
       xlink:href="#linearGradient5920"
       inkscape:collect="always" />
    <linearGradient
       gradientUnits="userSpaceOnUse"
       y2="570.68585"
       x2="192.19034"
       y1="458.06854"
       x1="192.86119"
       id="linearGradient9216"
       xlink:href="#linearGradient5019"
       inkscape:collect="always" />
    <linearGradient
       gradientUnits="userSpaceOnUse"
       y2="-680.09247"
       x2="188.83266"
       y1="-549.38239"
       x1="186.60002"
       id="linearGradient9214"
       xlink:href="#linearGradient4088"
       inkscape:collect="always" />
    <linearGradient
       gradientUnits="userSpaceOnUse"
       y2="-743.40839"
       x2="457.80374"
       y1="-563.57526"
       x1="458.24304"
       id="linearGradient9212"
       xlink:href="#linearGradient4080"
       inkscape:collect="always" />
    <linearGradient
       gradientTransform="matrix(-1,0,0,-1,398.5787,1025.663)"
       y2="543.14191"
       x2="134.51221"
       y1="573.22455"
       x1="101.70368"
       gradientUnits="userSpaceOnUse"
       id="linearGradient9210"
       xlink:href="#linearGradient5944"
       inkscape:collect="always" />
    <linearGradient
       y2="504.83167"
       x2="621.4303"
       y1="453.27194"
       x1="668.91956"
       gradientTransform="matrix(-1,0,0,-1,942.579,1037.663)"
       gradientUnits="userSpaceOnUse"
       id="linearGradient9208"
       xlink:href="#linearGradient3669"
       inkscape:collect="always" />
    <linearGradient
       gradientTransform="translate(12,-10)"
       gradientUnits="userSpaceOnUse"
       y2="504.83167"
       x2="621.4303"
       y1="453.27194"
       x1="668.91956"
       id="linearGradient9206"
       xlink:href="#linearGradient3669"
       inkscape:collect="always" />
    <linearGradient
       id="linearGradient9146">
      <stop
         id="stop9148"
         offset="0"
         style="stop-color:white;stop-opacity:1;" />
      <stop
         id="stop9150"
         offset="1"
         style="stop-color:white;stop-opacity:0.69172931;" />
    </linearGradient>
    <linearGradient
       inkscape:collect="always"
       xlink:href="#linearGradient5936"
       id="linearGradient9274"
       gradientUnits="userSpaceOnUse"
       x1="195.62471"
       y1="470.89139"
       x2="193.67471"
       y2="558.20929" />
    <linearGradient
       inkscape:collect="always"
       xlink:href="#linearGradient5928"
       id="linearGradient9276"
       gradientUnits="userSpaceOnUse"
       x1="195.62471"
       y1="470.89139"
       x2="193.67471"
       y2="558.20929" />
    <linearGradient
       inkscape:collect="always"
       xlink:href="#linearGradient5936"
       id="linearGradient9278"
       gradientUnits="userSpaceOnUse"
       gradientTransform="translate(-3.28125e-5,-1153.484)"
       x1="195.62471"
       y1="470.89139"
       x2="193.67471"
       y2="558.20929" />
    <linearGradient
       inkscape:collect="always"
       xlink:href="#linearGradient5928"
       id="linearGradient9280"
       gradientUnits="userSpaceOnUse"
       gradientTransform="translate(-3.28125e-5,-1153.484)"
       x1="195.62471"
       y1="470.89139"
       x2="193.67471"
       y2="558.20929" />
    <linearGradient
       inkscape:collect="always"
       xlink:href="#linearGradient5936"
       id="linearGradient9287"
       gradientUnits="userSpaceOnUse"
       gradientTransform="translate(1308.154,-1145.045)"
       x1="195.62471"
       y1="470.89139"
       x2="193.67471"
       y2="558.20929" />
    <linearGradient
       inkscape:collect="always"
       xlink:href="#linearGradient5928"
       id="linearGradient9289"
       gradientUnits="userSpaceOnUse"
       gradientTransform="translate(1308.154,-1145.045)"
       x1="195.62471"
       y1="470.89139"
       x2="193.67471"
       y2="558.20929" />
    <linearGradient
       inkscape:collect="always"
       xlink:href="#linearGradient5936"
       id="linearGradient9313"
       gradientUnits="userSpaceOnUse"
       x1="195.62471"
       y1="470.89139"
       x2="193.67471"
       y2="558.20929"
       gradientTransform="translate(1105.642,1322.231)" />
    <linearGradient
       inkscape:collect="always"
       xlink:href="#linearGradient5928"
       id="linearGradient9315"
       gradientUnits="userSpaceOnUse"
       x1="195.62471"
       y1="470.89139"
       x2="193.67471"
       y2="558.20929"
       gradientTransform="translate(1105.642,1322.231)" />
    <linearGradient
       inkscape:collect="always"
       xlink:href="#linearGradient5936"
       id="linearGradient9370"
       gradientUnits="userSpaceOnUse"
       gradientTransform="translate(1446.31,-70.81572)"
       x1="195.62471"
       y1="470.89139"
       x2="193.67471"
       y2="558.20929" />
    <linearGradient
       inkscape:collect="always"
       xlink:href="#linearGradient5928"
       id="linearGradient9372"
       gradientUnits="userSpaceOnUse"
       gradientTransform="translate(1446.31,-70.81572)"
       x1="195.62471"
       y1="470.89139"
       x2="193.67471"
       y2="558.20929" />
    <linearGradient
       inkscape:collect="always"
       xlink:href="#linearGradient5920"
       id="linearGradient6631"
       gradientUnits="userSpaceOnUse"
       gradientTransform="translate(1446.31,-70.81572)"
       x1="365.61008"
       y1="575.88721"
       x2="363.3226"
       y2="453.59662" />
    <linearGradient
       inkscape:collect="always"
       xlink:href="#linearGradient5019"
       id="linearGradient6633"
       gradientUnits="userSpaceOnUse"
       gradientTransform="translate(1446.31,-70.81572)"
       x1="192.86119"
       y1="458.06854"
       x2="192.19034"
       y2="570.68585" />
    <linearGradient
       inkscape:collect="always"
       xlink:href="#linearGradient5944"
       id="linearGradient6635"
       gradientUnits="userSpaceOnUse"
       gradientTransform="matrix(-1,0,0,-1,1844.889,954.8474)"
       x1="101.70368"
       y1="573.22455"
       x2="134.51221"
       y2="543.14191" />
    <linearGradient
       inkscape:collect="always"
       xlink:href="#linearGradient3669"
       id="linearGradient6637"
       gradientUnits="userSpaceOnUse"
       gradientTransform="translate(1458.31,-80.81572)"
       x1="668.91956"
       y1="453.27194"
       x2="621.4303"
       y2="504.83167" />
    <linearGradient
       inkscape:collect="always"
       xlink:href="#linearGradient3669"
       id="linearGradient6639"
       gradientUnits="userSpaceOnUse"
       gradientTransform="matrix(-1,0,0,-1,2388.889,966.8474)"
       x1="668.91956"
       y1="453.27194"
       x2="621.4303"
       y2="504.83167" />
    <linearGradient
       inkscape:collect="always"
       xlink:href="#linearGradient5954"
       id="linearGradient6641"
       gradientUnits="userSpaceOnUse"
       gradientTransform="translate(1446.31,-70.81572)"
       x1="85.526924"
       y1="588.82147"
       x2="131.55957"
       y2="549.12012" />
    <linearGradient
       inkscape:collect="always"
       xlink:href="#linearGradient5936"
       id="linearGradient6643"
       gradientUnits="userSpaceOnUse"
       gradientTransform="translate(1446.31,-70.81572)"
       x1="195.62471"
       y1="470.89139"
       x2="193.67471"
       y2="558.20929" />
    <linearGradient
       inkscape:collect="always"
       xlink:href="#linearGradient5928"
       id="linearGradient6645"
       gradientUnits="userSpaceOnUse"
       gradientTransform="translate(1446.31,-70.81572)"
       x1="195.62471"
       y1="470.89139"
       x2="193.67471"
       y2="558.20929" />
    <radialGradient
       inkscape:collect="always"
       xlink:href="#linearGradient7588"
       id="radialGradient7538"
       cx="1462.1479"
       cy="1214.1635"
       fx="1462.1479"
       fy="1214.1635"
       r="1946.1929"
       gradientTransform="matrix(1,0,0,0.672668,0,397.4347)"
       gradientUnits="userSpaceOnUse" />
    <linearGradient
       inkscape:collect="always"
       xlink:href="#linearGradient5920"
       id="linearGradient7562"
       gradientUnits="userSpaceOnUse"
       gradientTransform="translate(1446.31,-70.81572)"
       x1="365.61008"
       y1="575.88721"
       x2="363.3226"
       y2="453.59662" />
    <linearGradient
       inkscape:collect="always"
       xlink:href="#linearGradient5019"
       id="linearGradient7564"
       gradientUnits="userSpaceOnUse"
       gradientTransform="translate(1446.31,-70.81572)"
       x1="192.86119"
       y1="458.06854"
       x2="192.19034"
       y2="570.68585" />
    <linearGradient
       inkscape:collect="always"
       xlink:href="#linearGradient5944"
       id="linearGradient7566"
       gradientUnits="userSpaceOnUse"
       gradientTransform="matrix(-1,0,0,-1,1844.889,954.8474)"
       x1="101.70368"
       y1="573.22455"
       x2="134.51221"
       y2="543.14191" />
    <linearGradient
       inkscape:collect="always"
       xlink:href="#linearGradient3669"
       id="linearGradient7568"
       gradientUnits="userSpaceOnUse"
       gradientTransform="translate(1458.31,-80.81572)"
       x1="668.91956"
       y1="453.27194"
       x2="621.4303"
       y2="504.83167" />
    <linearGradient
       inkscape:collect="always"
       xlink:href="#linearGradient3669"
       id="linearGradient7570"
       gradientUnits="userSpaceOnUse"
       gradientTransform="matrix(-1,0,0,-1,2388.889,966.8474)"
       x1="668.91956"
       y1="453.27194"
       x2="621.4303"
       y2="504.83167" />
    <linearGradient
       inkscape:collect="always"
       xlink:href="#linearGradient5954"
       id="linearGradient7572"
       gradientUnits="userSpaceOnUse"
       gradientTransform="translate(1446.31,-70.81572)"
       x1="85.526924"
       y1="588.82147"
       x2="131.55957"
       y2="549.12012" />
    <linearGradient
       inkscape:collect="always"
       xlink:href="#linearGradient5936"
       id="linearGradient7574"
       gradientUnits="userSpaceOnUse"
       gradientTransform="translate(1446.31,-70.81572)"
       x1="195.62471"
       y1="470.89139"
       x2="193.67471"
       y2="558.20929" />
    <linearGradient
       inkscape:collect="always"
       xlink:href="#linearGradient5928"
       id="linearGradient7576"
       gradientUnits="userSpaceOnUse"
       gradientTransform="translate(1446.31,-70.81572)"
       x1="195.62471"
       y1="470.89139"
       x2="193.67471"
       y2="558.20929" />
    <linearGradient
       inkscape:collect="always"
       xlink:href="#linearGradient5920"
       id="linearGradient7600"
       gradientUnits="userSpaceOnUse"
       gradientTransform="translate(1446.31,-70.81572)"
       x1="365.61008"
       y1="575.88721"
       x2="363.3226"
       y2="453.59662" />
    <linearGradient
       inkscape:collect="always"
       xlink:href="#linearGradient5019"
       id="linearGradient7602"
       gradientUnits="userSpaceOnUse"
       gradientTransform="translate(1446.31,-70.81572)"
       x1="192.86119"
       y1="458.06854"
       x2="192.19034"
       y2="570.68585" />
    <linearGradient
       inkscape:collect="always"
       xlink:href="#linearGradient5944"
       id="linearGradient7604"
       gradientUnits="userSpaceOnUse"
       gradientTransform="matrix(-1,0,0,-1,1844.889,954.8474)"
       x1="101.70368"
       y1="573.22455"
       x2="134.51221"
       y2="543.14191" />
    <linearGradient
       inkscape:collect="always"
       xlink:href="#linearGradient3669"
       id="linearGradient7606"
       gradientUnits="userSpaceOnUse"
       gradientTransform="translate(1458.31,-80.81572)"
       x1="668.91956"
       y1="453.27194"
       x2="621.4303"
       y2="504.83167" />
    <linearGradient
       inkscape:collect="always"
       xlink:href="#linearGradient3669"
       id="linearGradient7608"
       gradientUnits="userSpaceOnUse"
       gradientTransform="matrix(-1,0,0,-1,2388.889,966.8474)"
       x1="668.91956"
       y1="453.27194"
       x2="621.4303"
       y2="504.83167" />
    <linearGradient
       inkscape:collect="always"
       xlink:href="#linearGradient5954"
       id="linearGradient7610"
       gradientUnits="userSpaceOnUse"
       gradientTransform="translate(1446.31,-70.81572)"
       x1="85.526924"
       y1="588.82147"
       x2="131.55957"
       y2="549.12012" />
    <linearGradient
       inkscape:collect="always"
       xlink:href="#linearGradient5936"
       id="linearGradient7612"
       gradientUnits="userSpaceOnUse"
       gradientTransform="translate(1446.31,-70.81572)"
       x1="195.62471"
       y1="470.89139"
       x2="193.67471"
       y2="558.20929" />
    <linearGradient
       inkscape:collect="always"
       xlink:href="#linearGradient5928"
       id="linearGradient7614"
       gradientUnits="userSpaceOnUse"
       gradientTransform="translate(1446.31,-70.81572)"
       x1="195.62471"
       y1="470.89139"
       x2="193.67471"
       y2="558.20929" />
  </defs>
  <sodipodi:namedview
     id="base"
     pagecolor="#ffffff"
     bordercolor="#666666"
     borderopacity="1.0"
     inkscape:pageopacity="0.0"
     inkscape:pageshadow="2"
     inkscape:zoom="0.20225361"
     inkscape:cx="1053.5147"
     inkscape:cy="492.59633"
     inkscape:document-units="px"
     inkscape:current-layer="layer1"
     width="3200px"
     height="2400px"
     showgrid="true"
     borderlayer="true"
     inkscape:window-width="1002"
     inkscape:window-height="705"
     inkscape:window-x="0"
     inkscape:window-y="29" />
  <metadata
     id="metadata7">
    <rdf:RDF>
      <cc:Work
         rdf:about="">
        <dc:format>image/svg+xml</dc:format>
        <dc:type
           rdf:resource="http://purl.org/dc/dcmitype/StillImage" />
      </cc:Work>
    </rdf:RDF>
  </metadata>
  <g
     inkscape:label="Capa 1"
     inkscape:groupmode="layer"
     id="layer1">
    <rect
       style="opacity:1;fill:url(#radialGradient7538);fill-opacity:1.0;fill-rule:nonzero;stroke:black;stroke-width:1;stroke-linecap:round;stroke-linejoin:round;stroke-miterlimit:4;stroke-dasharray:none;stroke-dashoffset:0;stroke-opacity:1"
       id="rect6596"
       width="3891.3857"
       height="2617.283"
       x="-483.54495"
       y="-94.477997"
       rx="7.016686"
       ry="9.3555832" />
    <path
       style="opacity:1;fill:red;fill-opacity:1;fill-rule:nonzero;stroke:white;stroke-width:30;stroke-linecap:round;stroke-linejoin:round;stroke-miterlimit:4;stroke-dasharray:none;stroke-dashoffset:21;stroke-opacity:1"
       d="M 508.87138,1840.399 C 508.87138,1840.399 520.24358,1845.1076 520.24358,1845.1076 L 2616.1701,1842.1187 C 2616.1701,1842.1187 2707.1453,1830.1633 2714.1433,1734.519 C 2721.1414,1638.8748 2609.172,1387.8085 2574.1816,1289.1753 C 2539.1912,1190.5421 2598.675,1112.8312 2640.6635,1062.0202 C 2682.652,1011.2092 2707.1453,1053.0536 2721.1414,1011.2092 C 2735.1376,969.36485 2759.6308,622.65437 2675.6538,583.79888 C 2591.6768,544.9434 1580.4535,535.99371 1489.4784,562.88517 C 1398.5033,589.77665 1395.0042,604.72107 1398.5033,646.56543 C 1402.0024,688.4098 1772.9009,915.56492 1842.8817,903.60939 C 1912.8626,891.65386 2245.2717,538.96564 2420.2238,694.38756 C 2595.1759,849.80949 2546.1893,966.37597 2521.696,1017.187 C 2497.2027,1067.998 2112.308,1522.3082 1982.8434,1549.2081 C 1853.3788,1576.1081 1045.1,1594.0414 961.123,1549.2081 C 877.14593,1504.3749 681.19955,1393.7862 702.1938,1298.1419 C 723.18806,1202.4976 1160.5684,1017.187 1136.0751,966.37597 C 1111.5818,915.56492 716.18997,1062.0202 674.20146,1115.8202 C 632.21295,1169.62 677.7005,1304.1198 635.71199,1393.7862 C 593.72348,1483.4528 443.26464,1650.8303 450.26273,1716.5856 C 457.26082,1782.3411 508.87138,1840.399 508.87138,1840.399 z M 479.04175,1960.6095 C 479.04175,1960.6095 506.42166,1963.1895 464.43315,1957.2117 C 422.44464,1951.2339 303.30293,1803.2632 320.79815,1722.5634 C 338.29336,1641.8636 411.77326,1579.097 453.76177,1465.5195 C 495.75028,1351.9419 450.26273,1190.5421 495.75028,1121.7978 C 541.23784,1053.0536 849.15359,855.78725 926.1325,843.83173 C 1003.1115,831.8762 1272.5378,775.08742 1300.5301,912.57604 C 1328.5224,1050.0647 1286.5339,1067.998 1202.5569,1121.7978 C 1118.5799,1175.5978 884.14402,1205.4866 894.64114,1268.2531 C 905.13827,1331.0196 1020.6067,1426.6639 1108.0828,1438.6195 C 1195.5588,1450.5751 1800.8932,1492.4195 1867.375,1462.5306 C 1933.8568,1432.6417 2539.1912,933.49823 2343.2448,825.89843 C 2147.2984,718.29863 2056.3233,1070.9869 1891.8683,1041.0981 C 1727.4133,1011.2092 1160.5684,739.22082 1209.5549,604.72107 C 1258.5416,470.22132 1297.031,419.4103 1461.4861,422.39919 C 1625.9411,425.38807 2588.1778,416.42142 2693.149,443.32137 C 2798.1204,470.22132 2854.105,595.75442 2861.1031,649.55432 C 2868.1013,703.35421 2934.5831,1035.1202 2871.6002,1100.8757 C 2808.6175,1166.6311 2707.1453,1151.6867 2710.6443,1214.4533 C 2714.1433,1277.2198 2896.0935,1680.719 2882.0974,1728.5411 C 2868.1013,1776.3633 2826.1127,1895.9186 2749.1338,1910.8631 C 2672.1548,1925.8075 2588.1778,1973.6296 2518.1969,1979.6073 C 2448.2161,1985.5851 479.04175,1960.6095 479.04175,1960.6095 z "
       id="path2900"
       sodipodi:nodetypes="ccccsssssssssccssssscccssssscssssccssssssssc" />
    <g
       id="g6598"
       transform="translate(1912.471,989.5703)">
      <rect
         style="fill:url(#linearGradient6631);fill-opacity:1;fill-rule:nonzero;stroke:none;stroke-width:5;stroke-linecap:round;stroke-linejoin:round;stroke-miterlimit:4;stroke-dasharray:none;stroke-dashoffset:0;stroke-opacity:1"
         id="rect9338"
         width="564.67505"
         height="122.29058"
         x="1546.548"
         y="382.78088"
         rx="7.016686"
         ry="9.3555832" />
      <rect
         style="fill:url(#linearGradient6633);fill-opacity:1;fill-rule:nonzero;stroke:none;stroke-width:5;stroke-linecap:round;stroke-linejoin:round;stroke-miterlimit:4;stroke-dasharray:none;stroke-dashoffset:0;stroke-opacity:1"
         id="rect9342"
         width="181.81586"
         height="112.61729"
         x="1553.4998"
         y="387.25281"
         rx="7.016686"
         ry="9.3555832" />
      <path
         id="path9346"
         d="M 1657.6076,390.75064 L 1718.6652,389.3938 C 1732.2336,388.03697 1733.5904,401.60532 1733.5904,401.60532 L 1730.8767,466.73339 C 1703.74,411.10316 1657.6076,392.10747 1657.6076,390.75064 z "
         style="opacity:0.647343;fill:url(#linearGradient6635);fill-opacity:1;fill-rule:nonzero;stroke:none;stroke-width:5;stroke-linecap:round;stroke-linejoin:round;stroke-miterlimit:4;stroke-dasharray:none;stroke-dashoffset:0;stroke-opacity:1" />
      <text
         xml:space="preserve"
         style="font-size:100.7718277px;font-style:normal;font-variant:normal;font-weight:normal;font-stretch:normal;text-align:center;line-height:125%;writing-mode:lr-tb;text-anchor:middle;fill:white;fill-opacity:1;stroke:none;stroke-width:1pt;stroke-linecap:butt;stroke-linejoin:miter;stroke-opacity:1;font-family:Samanata"
         x="1917.7219"
         y="476.54205"
         id="text9350"
         sodipodi:linespacing="125%"><tspan
           sodipodi:role="line"
           id="tspan9352"
           x="1917.7219"
           y="476.54205">Juegos</tspan></text>
      <path
         style="opacity:0.647343;fill:url(#linearGradient6637);fill-opacity:1;fill-rule:nonzero;stroke:none;stroke-width:5;stroke-linecap:round;stroke-linejoin:round;stroke-miterlimit:4;stroke-dasharray:none;stroke-dashoffset:0;stroke-opacity:1"
         d="M 2033.6077,386.75064 L 2094.6652,385.3938 C 2108.2336,384.03697 2109.5904,397.60532 2109.5904,397.60532 L 2106.8767,462.73339 C 2079.74,407.10316 2033.6077,388.10747 2033.6077,386.75064 z "
         id="path9354" />
      <path
         id="path9358"
         d="M 1813.5904,499.28117 L 1752.5328,500.63801 C 1738.9645,501.99484 1737.6076,488.42649 1737.6076,488.42649 L 1740.3213,423.29842 C 1767.458,478.92865 1813.5904,497.92434 1813.5904,499.28117 z "
         style="opacity:0.647343;fill:url(#linearGradient6639);fill-opacity:1;fill-rule:nonzero;stroke:none;stroke-width:5;stroke-linecap:round;stroke-linejoin:round;stroke-miterlimit:4;stroke-dasharray:none;stroke-dashoffset:0;stroke-opacity:1" />
      <path
         style="opacity:0.647343;fill:url(#linearGradient6641);fill-opacity:1;fill-rule:nonzero;stroke:none;stroke-width:5;stroke-linecap:round;stroke-linejoin:round;stroke-miterlimit:4;stroke-dasharray:none;stroke-dashoffset:0;stroke-opacity:1"
         d="M 1633.5904,493.28117 L 1572.5328,494.63801 C 1558.9645,495.99484 1557.6077,482.42649 1557.6077,482.42649 L 1560.3213,417.29842 C 1587.458,472.92865 1633.5904,491.92434 1633.5904,493.28117 z "
         id="path9362" />
      <text
         xml:space="preserve"
         style="font-size:113.22167206px;font-style:normal;font-variant:normal;font-weight:normal;font-stretch:normal;text-align:center;line-height:125%;writing-mode:lr-tb;text-anchor:middle;fill:url(#linearGradient6643);fill-opacity:1;stroke:url(#linearGradient6645);stroke-width:5;stroke-linecap:butt;stroke-linejoin:miter;stroke-miterlimit:4;stroke-dasharray:none;stroke-opacity:0.44144143;font-family:Samanata"
         x="1642.938"
         y="484.89355"
         id="text9366"
         sodipodi:linespacing="125%"><tspan
           sodipodi:role="line"
           id="tspan9368"
           x="1642.938"
           y="484.89355"
           style="fill:url(#linearGradient6643);fill-opacity:1;stroke:url(#linearGradient6645)">PiX</tspan></text>
    </g>
    <rect
       ry="9.3555832"
       rx="7.016686"
       y="1722.9482"
       x="3239.3352"
       height="204.87939"
       width="21.709074"
       id="rect9374"
       style="opacity:1;fill:red;fill-opacity:1;fill-rule:nonzero;stroke:none;stroke-width:5;stroke-linecap:round;stroke-linejoin:round;stroke-miterlimit:4;stroke-dasharray:none;stroke-dashoffset:0;stroke-opacity:1" />
    <path
       sodipodi:nodetypes="ccccsssssssssccssssscccssssscssssccssssssssc"
       id="path2012"
       d="M 508.87138,1840.399 C 508.87138,1840.399 520.24358,1845.1076 520.24358,1845.1076 L 2616.1701,1842.1187 C 2616.1701,1842.1187 2707.1453,1830.1633 2714.1433,1734.519 C 2721.1414,1638.8748 2609.172,1387.8085 2574.1816,1289.1753 C 2539.1912,1190.5421 2598.675,1112.8312 2640.6635,1062.0202 C 2682.652,1011.2092 2707.1453,1053.0536 2721.1414,1011.2092 C 2735.1376,969.36485 2759.6308,622.65437 2675.6538,583.79888 C 2591.6768,544.9434 1580.4535,535.99371 1489.4784,562.88517 C 1398.5033,589.77665 1395.0042,604.72107 1398.5033,646.56543 C 1402.0024,688.4098 1772.9009,915.56492 1842.8817,903.60939 C 1912.8626,891.65386 2245.2717,538.96564 2420.2238,694.38756 C 2595.1759,849.80949 2546.1893,966.37597 2521.696,1017.187 C 2497.2027,1067.998 2112.308,1522.3082 1982.8434,1549.2081 C 1853.3788,1576.1081 1045.1,1594.0414 961.123,1549.2081 C 877.14593,1504.3749 681.19955,1393.7862 702.1938,1298.1419 C 723.18806,1202.4976 1160.5684,1017.187 1136.0751,966.37597 C 1111.5818,915.56492 716.18997,1062.0202 674.20146,1115.8202 C 632.21295,1169.62 677.7005,1304.1198 635.71199,1393.7862 C 593.72348,1483.4528 443.26464,1650.8303 450.26273,1716.5856 C 457.26082,1782.3411 508.87138,1840.399 508.87138,1840.399 z M 479.04175,1960.6095 C 479.04175,1960.6095 506.42166,1963.1895 464.43315,1957.2117 C 422.44464,1951.2339 303.30293,1803.2632 320.79815,1722.5634 C 338.29336,1641.8636 411.77326,1579.097 453.76177,1465.5195 C 495.75028,1351.9419 450.26273,1190.5421 495.75028,1121.7978 C 541.23784,1053.0536 849.15359,855.78725 926.1325,843.83173 C 1003.1115,831.8762 1272.5378,775.08742 1300.5301,912.57604 C 1328.5224,1050.0647 1286.5339,1067.998 1202.5569,1121.7978 C 1118.5799,1175.5978 884.14402,1205.4866 894.64114,1268.2531 C 905.13827,1331.0196 1020.6067,1426.6639 1108.0828,1438.6195 C 1195.5588,1450.5751 1800.8932,1492.4195 1867.375,1462.5306 C 1933.8568,1432.6417 2539.1912,933.49823 2343.2448,825.89843 C 2147.2984,718.29863 2056.3233,1070.9869 1891.8683,1041.0981 C 1727.4133,1011.2092 1160.5684,739.22082 1209.5549,604.72107 C 1258.5416,470.22132 1297.031,419.4103 1461.4861,422.39919 C 1625.9411,425.38807 2588.1778,416.42142 2693.149,443.32137 C 2798.1204,470.22132 2854.105,595.75442 2861.1031,649.55432 C 2868.1013,703.35421 2934.5831,1035.1202 2871.6002,1100.8757 C 2808.6175,1166.6311 2707.1453,1151.6867 2710.6443,1214.4533 C 2714.1433,1277.2198 2896.0935,1680.719 2882.0974,1728.5411 C 2868.1013,1776.3633 2826.1127,1895.9186 2749.1338,1910.8631 C 2672.1548,1925.8075 2588.1778,1973.6296 2518.1969,1979.6073 C 2448.2161,1985.5851 479.04175,1960.6095 479.04175,1960.6095 z "
       style="opacity:1;fill:red;fill-opacity:1;fill-rule:nonzero;stroke:red;stroke-width:30;stroke-linecap:round;stroke-linejoin:round;stroke-miterlimit:4;stroke-dasharray:120,120;stroke-dashoffset:21;stroke-opacity:1" />
    <path
       style="opacity:1;fill:#ccc;fill-opacity:1;fill-rule:nonzero;stroke:black;stroke-width:1;stroke-linecap:round;stroke-linejoin:round;stroke-miterlimit:4;stroke-dasharray:none;stroke-dashoffset:0;stroke-opacity:1"
       d="M 510.87138,1840.399 C 510.87138,1840.399 522.24358,1845.1076 522.24358,1845.1076 L 2618.1701,1842.1187 C 2618.1701,1842.1187 2709.1453,1830.1633 2716.1433,1734.519 C 2723.1414,1638.8748 2611.172,1387.8085 2576.1816,1289.1753 C 2541.1912,1190.5421 2600.675,1112.8312 2642.6635,1062.0202 C 2684.652,1011.2092 2709.1453,1053.0536 2723.1414,1011.2092 C 2737.1376,969.36485 2761.6308,622.65437 2677.6538,583.79888 C 2593.6768,544.9434 1582.4535,535.99371 1491.4784,562.88517 C 1400.5033,589.77665 1397.0042,604.72107 1400.5033,646.56543 C 1404.0024,688.4098 1774.9009,915.56492 1844.8817,903.60939 C 1914.8626,891.65386 2247.2717,538.96564 2422.2238,694.38756 C 2597.1759,849.80949 2548.1893,966.37597 2523.696,1017.187 C 2499.2027,1067.998 2114.308,1522.3082 1984.8434,1549.2081 C 1855.3788,1576.1081 1047.1,1594.0414 963.123,1549.2081 C 879.14593,1504.3749 683.19955,1393.7862 704.1938,1298.1419 C 725.18806,1202.4976 1162.5684,1017.187 1138.0751,966.37597 C 1113.5818,915.56492 718.18997,1062.0202 676.20146,1115.8202 C 634.21295,1169.62 679.7005,1304.1198 637.71199,1393.7862 C 595.72348,1483.4528 445.26464,1650.8303 452.26273,1716.5856 C 459.26082,1782.3411 510.87138,1840.399 510.87138,1840.399 z M 481.04175,1960.6095 C 481.04175,1960.6095 508.42166,1963.1895 466.43315,1957.2117 C 424.44464,1951.2339 305.30293,1803.2632 322.79815,1722.5634 C 340.29336,1641.8636 413.77326,1579.097 455.76177,1465.5195 C 497.75028,1351.9419 452.26273,1190.5421 497.75028,1121.7978 C 543.23784,1053.0536 851.15359,855.78725 928.1325,843.83173 C 1005.1115,831.8762 1274.5378,775.08742 1302.5301,912.57604 C 1330.5224,1050.0647 1288.5339,1067.998 1204.5569,1121.7978 C 1120.5799,1175.5978 886.14402,1205.4866 896.64114,1268.2531 C 907.13827,1331.0196 1022.6067,1426.6639 1110.0828,1438.6195 C 1197.5588,1450.5751 1802.8932,1492.4195 1869.375,1462.5306 C 1935.8568,1432.6417 2541.1912,933.49823 2345.2448,825.89843 C 2149.2984,718.29863 2058.3233,1070.9869 1893.8683,1041.0981 C 1729.4133,1011.2092 1162.5684,739.22082 1211.5549,604.72107 C 1260.5416,470.22132 1299.031,419.4103 1463.4861,422.39919 C 1627.9411,425.38807 2590.1778,416.42142 2695.149,443.32137 C 2800.1204,470.22132 2856.105,595.75442 2863.1031,649.55432 C 2870.1013,703.35421 2936.5831,1035.1202 2873.6002,1100.8757 C 2810.6175,1166.6311 2709.1453,1151.6867 2712.6443,1214.4533 C 2716.1433,1277.2198 2898.0935,1680.719 2884.0974,1728.5411 C 2870.1013,1776.3633 2828.1127,1895.9186 2751.1338,1910.8631 C 2674.1548,1925.8075 2590.1778,1973.6296 2520.1969,1979.6073 C 2450.2161,1985.5851 481.04175,1960.6095 481.04175,1960.6095 z "
       id="path6590"
       sodipodi:nodetypes="ccccsssssssssccssssscccssssscssssccssssssssc" />
    <g
       id="g6520"
       transform="matrix(0.999593,2.854389e-2,-2.854389e-2,0.999593,-2408.33,550.9199)">
      <path
         id="path9378"
         d="M 3274.6782,1178.1861 L 3326.2373,1178.1861 L 3326.9157,1335.5769 L 3273.3214,1336.2553 L 3274.6782,1178.1861 z "
         style="opacity:1;fill:white;fill-opacity:1;fill-rule:nonzero;stroke:none;stroke-width:5;stroke-linecap:round;stroke-linejoin:round;stroke-miterlimit:4;stroke-dasharray:none;stroke-dashoffset:0;stroke-opacity:1" />
      <rect
         ry="0"
         rx="0"
         y="1182.9351"
         x="3280.7134"
         height="17.638624"
         width="18.317032"
         id="rect10273"
         style="opacity:1;fill:black;fill-opacity:1;fill-rule:nonzero;stroke:none;stroke-width:5;stroke-linecap:round;stroke-linejoin:round;stroke-miterlimit:4;stroke-dasharray:none;stroke-dashoffset:0;stroke-opacity:1" />
      <rect
         style="opacity:1;fill:black;fill-opacity:1;fill-rule:nonzero;stroke:none;stroke-width:5;stroke-linecap:round;stroke-linejoin:round;stroke-miterlimit:4;stroke-dasharray:none;stroke-dashoffset:0;stroke-opacity:1"
         id="rect10275"
         width="18.317032"
         height="17.638624"
         x="3300.7134"
         y="1202.9351"
         rx="0"
         ry="0" />
      <rect
         ry="0"
         rx="0"
         y="1222.9351"
         x="3280.7134"
         height="17.638624"
         width="18.317032"
         id="rect10277"
         style="opacity:1;fill:black;fill-opacity:1;fill-rule:nonzero;stroke:none;stroke-width:5;stroke-linecap:round;stroke-linejoin:round;stroke-miterlimit:4;stroke-dasharray:none;stroke-dashoffset:0;stroke-opacity:1" />
      <rect
         style="opacity:1;fill:black;fill-opacity:1;fill-rule:nonzero;stroke:none;stroke-width:5;stroke-linecap:round;stroke-linejoin:round;stroke-miterlimit:4;stroke-dasharray:none;stroke-dashoffset:0;stroke-opacity:1"
         id="rect10279"
         width="18.317032"
         height="17.638624"
         x="3300.7134"
         y="1242.9351"
         rx="0"
         ry="0" />
      <rect
         ry="0"
         rx="0"
         y="1262.9351"
         x="3280.7134"
         height="17.638624"
         width="18.317032"
         id="rect10281"
         style="opacity:1;fill:black;fill-opacity:1;fill-rule:nonzero;stroke:none;stroke-width:5;stroke-linecap:round;stroke-linejoin:round;stroke-miterlimit:4;stroke-dasharray:none;stroke-dashoffset:0;stroke-opacity:1" />
      <rect
         style="opacity:1;fill:black;fill-opacity:1;fill-rule:nonzero;stroke:none;stroke-width:5;stroke-linecap:round;stroke-linejoin:round;stroke-miterlimit:4;stroke-dasharray:none;stroke-dashoffset:0;stroke-opacity:1"
         id="rect10283"
         width="18.317032"
         height="17.638624"
         x="3300.7134"
         y="1282.9351"
         rx="0"
         ry="0" />
      <rect
         ry="0"
         rx="0"
         y="1302.9351"
         x="3280.7134"
         height="17.638624"
         width="18.317032"
         id="rect10285"
         style="opacity:1;fill:black;fill-opacity:1;fill-rule:nonzero;stroke:none;stroke-width:5;stroke-linecap:round;stroke-linejoin:round;stroke-miterlimit:4;stroke-dasharray:none;stroke-dashoffset:0;stroke-opacity:1" />
      <text
         transform="matrix(-1.514935e-2,0.999885,-0.999885,-1.514935e-2,0,0)"
         sodipodi:linespacing="125%"
         id="text10265"
         y="-3304.0884"
         x="1205.1917"
         style="font-size:42.49699783px;font-style:normal;font-variant:normal;font-weight:normal;font-stretch:normal;text-align:center;line-height:125%;writing-mode:lr-tb;text-anchor:middle;fill:#ff2a2a;fill-opacity:1;stroke:red;stroke-width:3;stroke-linecap:butt;stroke-linejoin:miter;stroke-miterlimit:4;stroke-dasharray:none;stroke-opacity:1;font-family:Samanata"
         xml:space="preserve"><tspan
           style="stroke-width:3"
           id="tspan10269"
           y="-3304.0884"
           x="1205.1917"
           sodipodi:role="line">FINISH</tspan></text>
    </g>
    <rect
       ry="9.3555832"
       rx="7.016686"
       y="1720"
       x="3258.3306"
       height="210.54126"
       width="35.277248"
       id="rect9376"
       style="opacity:1;fill:blue;fill-opacity:1;fill-rule:nonzero;stroke:none;stroke-width:5;stroke-linecap:round;stroke-linejoin:round;stroke-miterlimit:4;stroke-dasharray:none;stroke-dashoffset:0;stroke-opacity:1" />
  </g>
</svg>
